<svg width="26" height="19" viewBox="0 0 26 19" fill="none" xmlns="http://www.w3.org/2000/svg">
<g id="Group 1">
<path id="Vector" d="M2.88889 0C2.12271 0 1.38791 0.307966 0.846136 0.856149C0.304364 1.40433 0 2.14783 0 2.92308L0 16.0769C0 16.8522 0.304364 17.5957 0.846136 18.1439C1.38791 18.692 2.12271 19 2.88889 19H7.22222V0H2.88889ZM23.1111 0H18.7778V19H23.1111C23.8773 19 24.6121 18.692 25.1539 18.1439C25.6956 17.5957 26 16.8522 26 16.0769V2.92308C26 2.14783 25.6956 1.40433 25.1539 0.856149C24.6121 0.307966 23.8773 0 23.1111 0Z" fill="#D52B1E"/>
<path id="Vector_2" d="M7.22241 0H18.778V19H7.22241V0Z" fill="#EEEEEE"/>
<path id="Vector_3" d="M13.4441 12.5056C14.3093 12.6072 15.085 12.6986 15.9495 12.7987L15.7292 12.0664C15.713 12.0034 15.7152 11.937 15.7356 11.8753C15.756 11.8135 15.7937 11.7591 15.844 11.7186L18.3567 9.6476L17.8367 9.39987C17.6077 9.3173 17.6705 9.18649 17.7536 8.87226L18.1371 7.45749L16.6775 7.76952C16.5352 7.79145 16.4406 7.7001 16.4189 7.61241L16.2304 6.94668L15.0763 8.25768C14.9124 8.46814 14.5802 8.46814 14.6834 7.98291L15.1767 5.32729L14.5144 5.67441C14.3288 5.77964 14.1432 5.79718 14.0399 5.60937L13.1263 3.88037L12.2127 5.60937C12.1087 5.79718 11.9231 5.77964 11.7375 5.67441L11.0759 5.32729L11.5692 7.98291C11.6732 8.46814 11.3403 8.46814 11.1763 8.25768L10.0222 6.94741L9.83443 7.61314C9.81276 7.70083 9.71743 7.79218 9.57515 7.77026L8.11554 7.45822L8.49904 8.87299C8.58065 9.18722 8.64421 9.31803 8.41526 9.4006L7.89526 9.64833L10.4079 11.7193C10.5075 11.7975 10.5581 11.9386 10.522 12.0672L10.3017 12.7994L12.8078 12.5064C12.8844 12.5064 12.9349 12.5495 12.9342 12.6386L12.7797 15.3454H13.4701L13.3163 12.6386C13.3177 12.5488 13.3675 12.5056 13.4441 12.5056Z" fill="#D52B1E"/>
</g>
</svg>
