<svg width="16" height="16" viewBox="0 0 16 16" fill="none" xmlns="http://www.w3.org/2000/svg">
<g id="location 1">
<g id="Group">
<path id="Vector" fill-rule="evenodd" clip-rule="evenodd" d="M2.82617 6.92753C2.83578 4.10047 5.13535 1.81647 7.9624 1.82605C10.7895 1.83568 13.0735 4.13525 13.0639 6.96231V7.02028C13.0291 8.85796 12.003 10.5565 10.745 11.8841C10.0256 12.6311 9.22218 13.2925 8.35081 13.8551C8.11781 14.0566 7.77221 14.0566 7.53922 13.8551C6.24022 13.0096 5.10013 11.9421 4.1711 10.7014C3.34307 9.61959 2.87295 8.30648 2.82617 6.94492V6.92753Z" stroke="white" stroke-width="1.5" stroke-linecap="round" stroke-linejoin="round"/>
<path id="Vector_2" d="M7.94487 8.66665C8.85098 8.66665 9.58553 7.9321 9.58553 7.02598C9.58553 6.11987 8.85098 5.38531 7.94487 5.38531C7.03875 5.38531 6.3042 6.11987 6.3042 7.02598C6.3042 7.9321 7.03875 8.66665 7.94487 8.66665Z" stroke="white" stroke-width="1.5" stroke-linecap="round" stroke-linejoin="round"/>
</g>
</g>
</svg>
